<?xml version="1.0" standalone="no"?>
<!DOCTYPE svg PUBLIC "-//W3C//DTD SVG 20010904//EN"
 "http://www.w3.org/TR/2001/REC-SVG-20010904/DTD/svg10.dtd">
<svg version="1.0" xmlns="http://www.w3.org/2000/svg"
 width="411.000000pt" height="234.000000pt" viewBox="0 0 411.000000 234.000000"
 preserveAspectRatio="xMidYMid meet">

<g transform="translate(0.000000,234.000000) scale(0.100000,-0.100000)"
fill="#000000" stroke="none">
<path d="M0 1170 l0 -1170 2055 0 2055 0 0 1170 0 1170 -2055 0 -2055 0 0
-1170z m1048 243 l2 -243 -98 0 c-54 0 -101 -3 -104 -6 -4 -3 3 -15 13 -25 33
-33 22 -69 -26 -86 -51 -19 -178 -19 -230 -2 -34 12 -40 19 -43 45 -2 19 3 36
12 44 30 24 15 30 -84 30 l-100 0 0 238 c0 131 3 242 7 245 4 4 151 6 327 5
l321 -3 3 -242z m583 -149 c32 -69 59 -129 59 -135 0 -5 -15 -9 -33 -9 -26 0
-36 6 -45 25 -11 23 -17 25 -77 25 -60 0 -66 -2 -77 -25 -9 -19 -19 -25 -45
-25 -18 0 -33 5 -33 10 0 6 27 66 59 135 l60 125 36 0 36 0 60 -126z m349 91
l0 -35 -90 0 c-73 0 -90 -3 -90 -15 0 -12 14 -15 70 -15 l70 0 0 -35 0 -35
-70 0 -70 0 0 -50 0 -50 -35 0 -35 0 0 135 0 135 125 0 125 0 0 -35z m162 -30
c24 -35 45 -65 48 -65 3 0 24 30 48 65 38 59 45 65 77 65 l35 0 0 -135 0 -135
-35 0 -34 0 -3 76 -3 76 -32 -46 c-21 -29 -40 -46 -53 -46 -13 0 -32 17 -53
46 l-32 46 -3 -77 -3 -76 -37 3 -37 3 -3 119 c-1 66 0 126 2 133 3 7 21 13 41
13 32 0 38 -5 77 -65z m-1105 -267 c7 -6 13 -15 13 -20 0 -15 27 -38 43 -38
23 0 80 -156 69 -189 l-9 -26 -314 0 -314 0 -2 35 c-2 20 9 65 25 105 l28 70
216 3 c206 2 217 3 223 22 8 26 -1 40 -26 40 -10 0 -19 5 -19 11 0 13 47 4 67
-13z m2716 -47 c5 -5 7 -17 4 -25 -6 -14 -123 -16 -1179 -16 -662 0 -1179 4
-1187 9 -21 14 -6 39 26 43 72 8 2328 -3 2336 -11z"/>
<path d="M440 1425 l0 -185 280 0 280 0 0 185 0 185 -280 0 -280 0 0 -185z
m320 135 c0 -19 -54 -119 -67 -124 -20 -8 -16 18 14 79 24 48 53 73 53 45z
m-110 -60 c0 -33 -4 -60 -8 -60 -5 0 -21 14 -37 30 l-29 30 29 30 c16 17 32
30 37 30 4 0 8 -27 8 -60z m177 38 c30 -28 29 -38 -7 -73 l-30 -29 0 62 c0 34
3 62 7 62 4 0 17 -10 30 -22z m-227 -163 c0 -12 -13 -15 -60 -15 -47 0 -60 3
-60 15 0 12 13 15 60 15 47 0 60 -3 60 -15z m180 0 c0 -12 -13 -15 -60 -15
-47 0 -60 3 -60 15 0 12 13 15 60 15 47 0 60 -3 60 -15z m180 0 c0 -12 -13
-15 -59 -15 -56 0 -79 9 -64 24 3 3 33 6 65 6 45 0 58 -3 58 -15z m-390 -80
c0 -11 -12 -15 -45 -15 -33 0 -45 4 -45 15 0 11 12 15 45 15 33 0 45 -4 45
-15z m150 0 c0 -11 -12 -15 -45 -15 -33 0 -45 4 -45 15 0 11 12 15 45 15 33 0
45 -4 45 -15z m240 0 c0 -12 -17 -15 -90 -15 -73 0 -90 3 -90 15 0 12 17 15
90 15 73 0 90 -3 90 -15z"/>
<path d="M695 1200 c-9 -15 4 -30 26 -30 12 0 19 7 19 20 0 21 -33 29 -45 10z"/>
<path d="M1514 1275 c-19 -46 -19 -45 21 -45 19 0 35 2 35 5 0 12 -29 75 -35
75 -3 0 -13 -16 -21 -35z"/>
<path d="M627 973 c-14 -13 -6 -24 15 -21 27 4 36 28 11 28 -11 0 -23 -3 -26
-7z"/>
<path d="M915 970 c-8 -13 20 -24 41 -16 20 8 9 26 -16 26 -10 0 -22 -5 -25
-10z"/>
<path d="M1015 970 c-8 -13 20 -24 41 -16 20 8 9 26 -16 26 -10 0 -22 -5 -25
-10z"/>
<path d="M607 923 c-15 -14 -6 -23 23 -23 20 0 30 5 30 15 0 15 -40 21 -53 8z"/>
<path d="M717 924 c-4 -4 -7 -11 -7 -16 0 -13 50 -6 53 7 2 12 -36 19 -46 9z"/>
<path d="M817 924 c-11 -12 3 -24 29 -24 16 0 24 5 22 13 -5 13 -40 22 -51 11z"/>
<path d="M927 924 c-15 -15 -6 -24 24 -24 20 0 29 4 27 13 -5 14 -40 21 -51
11z"/>
<path d="M1027 924 c-11 -12 3 -24 29 -24 16 0 24 5 22 13 -5 13 -40 22 -51
11z"/>
<path d="M597 873 c-15 -14 -6 -23 23 -23 20 0 30 5 30 15 0 15 -40 21 -53 8z"/>
<path d="M707 873 c-15 -14 -6 -23 23 -23 20 0 30 5 30 15 0 15 -40 21 -53 8z"/>
<path d="M817 873 c-15 -14 -6 -23 23 -23 20 0 30 5 30 15 0 15 -40 21 -53 8z"/>
<path d="M925 871 c-7 -13 17 -24 40 -19 9 1 16 8 16 13 0 14 -48 19 -56 6z"/>
<path d="M1037 874 c-12 -13 4 -24 34 -24 20 0 29 4 27 13 -5 13 -50 22 -61
11z"/>
</g>
</svg>
